<svg xmlns="http://www.w3.org/2000/svg" xmlns:xlink="http://www.w3.org/1999/xlink" width="62.643" height="82.223" viewBox="0 0 62.643 82.223">
  <defs>
    <linearGradient id="linear-gradient" x1="0.5" x2="0.557" y2="1" gradientUnits="objectBoundingBox">
      <stop offset="0" stop-color="#8731e8"/>
      <stop offset="0.481" stop-color="#5219cb"/>
      <stop offset="1" stop-color="#4528dc"/>
    </linearGradient>
  </defs>
  <g id="check-list" transform="translate(-60.995 511.915)">
    <path id="Path_413" data-name="Path 413" d="M67.035-511.672a8.128,8.128,0,0,0-5.8,5.766c-.209.835-.241,4.947-.241,35.1,0,37.585-.064,34.983.98,36.942a8.838,8.838,0,0,0,3.2,3.2c1.863,1,1.51.98,17.764.98H97.729l.691-.369a2.488,2.488,0,0,0,1.076-1.076l.369-.691v-9.541c0-8.24.032-9.621.241-10.135a3,3,0,0,1,1.606-1.654c.594-.273,1.253-.305,10.215-.305H121.5l.707-.369a2.8,2.8,0,0,0,1.06-1.012l.369-.626v-24.735c0-27.225.064-25.6-.98-27.546a8.438,8.438,0,0,0-5.429-4.015c-.546-.1-9.573-.161-25.056-.145C71.854-511.9,67.838-511.865,67.035-511.672Zm17.54,13.235a3.044,3.044,0,0,1,1.253,1.879c.209,1.124-.1,1.526-4.176,5.638-2.12,2.152-4.064,4.015-4.3,4.144a3.278,3.278,0,0,1-2.345,0,17.9,17.9,0,0,1-2.072-1.9c-1.285-1.317-1.654-1.783-1.735-2.265a2.528,2.528,0,0,1,.659-2.345,2.5,2.5,0,0,1,3.694-.145l.562.5,2.779-2.747a33.778,33.778,0,0,1,3.164-2.907A3.483,3.483,0,0,1,84.575-498.437Zm27.209,3.823a2.765,2.765,0,0,1,1.2,2.554,2.48,2.48,0,0,1-1.237,1.927l-.53.369h-9.557c-9.428,0-9.557,0-10.151-.337A2.708,2.708,0,0,1,91-494.309c.8-.739,1.028-.755,10.874-.707l9.316.032ZM84.751-476.753a2.743,2.743,0,0,1,1.06,2.554c-.1.707-.257.9-4.224,4.867-4.545,4.546-4.738,4.674-6.152,4.3a12.825,12.825,0,0,1-3.951-3.662,2.584,2.584,0,0,1,2.233-3.887,2.586,2.586,0,0,1,2.056.867l.385.434,2.827-2.795c1.542-1.542,2.955-2.891,3.132-2.987A3.357,3.357,0,0,1,84.751-476.753Zm26.775,3.566a2.648,2.648,0,0,1,0,4.754c-.45.257-1.333.273-9.99.273H92.06l-.659-.434a2.656,2.656,0,0,1,.9-4.8c.321-.064,4.658-.1,9.653-.1C110.193-473.461,111.077-473.429,111.526-473.188ZM84.478-455.359a2.624,2.624,0,0,1,1.253,3.036c-.161.594-.739,1.237-3.983,4.513a38.855,38.855,0,0,1-4.449,4.144c-1.365.659-2.217.337-4.144-1.574-1.719-1.7-2.1-2.345-1.992-3.453a2.607,2.607,0,0,1,4.4-1.654l.642.562,2.714-2.747a34.964,34.964,0,0,1,3.2-2.955A2.718,2.718,0,0,1,84.478-455.359ZM95.5-451.536a2.77,2.77,0,0,1,1.173,3.052c-.418,1.381-1.831,2.088-3.807,1.879a2.857,2.857,0,0,1-2.281-1.253,1.879,1.879,0,0,1-.321-1.51,2.266,2.266,0,0,1,1.253-2.152A5.852,5.852,0,0,1,95.5-451.536Z" transform="translate(0 0)" fill="url(#linear-gradient)"/>
    <path id="Path_414" data-name="Path 414" d="M318.526-133.775a2.669,2.669,0,0,0-1.349,1.429c-.112.305-.177,3.389-.177,9.155,0,8.175.016,8.738.305,9.268a2.653,2.653,0,0,0,3.116,1.285c.578-.161,1.9-1.4,8.995-8.481,4.578-4.578,8.513-8.609,8.738-8.995a2.526,2.526,0,0,0-.193-2.859c-.8-1.044-.578-1.028-10.231-1.028C320.823-133.984,318.911-133.936,318.526-133.775Z" transform="translate(-214.886 -317.215)" fill="url(#linear-gradient)"/>
  </g>
</svg>
