<svg xmlns="http://www.w3.org/2000/svg" xmlns:xlink="http://www.w3.org/1999/xlink" width="84" height="84" viewBox="0 0 84 84">
  <defs>
    <linearGradient id="linear-gradient" x1="0.5" x2="0.557" y2="1" gradientUnits="objectBoundingBox">
      <stop offset="0" stop-color="#8731e8"/>
      <stop offset="0.481" stop-color="#5219cb"/>
      <stop offset="1" stop-color="#4528dc"/>
    </linearGradient>
  </defs>
  <g id="statistic" transform="translate(-16.025 495.809)">
    <path id="Path_411" data-name="Path 411" d="M112.411-495.565a7.4,7.4,0,0,0-4.173,3.2,8.228,8.228,0,0,0-.912,3.442v.778l-3.91,1.937-3.91,1.92-.438-.329a7.1,7.1,0,0,0-7.277-.865,6.622,6.622,0,0,0-3.367,3.269,4.706,4.706,0,0,0-.649,2.958,4.772,4.772,0,0,0,.561,2.82l.544,1.159-4.927,4.549c-2.718,2.508-5.032,4.619-5.155,4.688a4.529,4.529,0,0,1-1.578-.329,5.331,5.331,0,0,0-2.648-.363,6.849,6.849,0,0,0-5.681,3.736c-.3.623-.561,1.159-.579,1.176-.018.052-6.26-2.18-6.347-2.249a5.97,5.97,0,0,1,.245-.986,7.035,7.035,0,0,0-.438-4.584,6.687,6.687,0,0,0-3.331-3.339,4.9,4.9,0,0,0-3.016-.64,4.9,4.9,0,0,0-3.016.64,6.691,6.691,0,0,0-3.349,3.391,4.743,4.743,0,0,0-.561,2.8,4.743,4.743,0,0,0,.561,2.8,6.691,6.691,0,0,0,3.349,3.391,4.876,4.876,0,0,0,3,.64,5,5,0,0,0,2.683-.467,12.071,12.071,0,0,0,1.578-.882l.579-.432,3.91,1.418,3.928,1.418.386,1.142a6.82,6.82,0,0,0,6.154,4.774,6.874,6.874,0,0,0,6.575-10.1l-.473-.9,4.3-3.944c2.35-2.18,4.664-4.29,5.12-4.688l.842-.744,1.035.467a4.92,4.92,0,0,0,2.7.484,4.876,4.876,0,0,0,3-.64,6.83,6.83,0,0,0,3.752-7.905,8.056,8.056,0,0,1-.245-1.142c.035-.017,1.631-.8,3.559-1.713l3.507-1.678.333.484a7.208,7.208,0,0,0,2.735,2.2,5.049,5.049,0,0,0,2.981.536,5.274,5.274,0,0,0,2.858-.467,7.941,7.941,0,0,0,3.367-3.321,7.332,7.332,0,0,0,.281-5.138,6.863,6.863,0,0,0-2.437-3.269A7.081,7.081,0,0,0,112.411-495.565Z" transform="translate(-26.857 0)" fill="url(#linear-gradient)"/>
    <path id="Path_412" data-name="Path 412" d="M79.465-391.561l-.438.422v62.372h-2.8v-48.32l-.438-.422-.42-.439H60.283l-.42.439-.438.422v48.32h-2.8v-32.863l-.438-.422-.42-.439H40.681l-.42.439-.438.422v32.863h-2.8v-39.889l-.438-.422-.42-.439H21.079l-.42.439-.438.422v39.889H18.558c-1.54,0-1.715.035-2.1.439a1.294,1.294,0,0,0,0,1.932l.42.439H99.172l.42-.439a1.294,1.294,0,0,0,0-1.932c-.385-.4-.56-.439-2.1-.439H95.829v-62.372l-.438-.422-.42-.439H79.885Z" transform="translate(0 -85.852)" fill="url(#linear-gradient)"/>
  </g>
</svg>
