<svg xmlns="http://www.w3.org/2000/svg" xmlns:xlink="http://www.w3.org/1999/xlink" width="84" height="84" viewBox="0 0 84 84">
  <defs>
    <linearGradient id="linear-gradient" x1="0.5" x2="0.557" y2="1" gradientUnits="objectBoundingBox">
      <stop offset="0" stop-color="#8731e8"/>
      <stop offset="0.481" stop-color="#5219cb"/>
      <stop offset="1" stop-color="#4528dc"/>
    </linearGradient>
  </defs>
  <g id="technology" transform="translate(0 507.821)">
    <path id="Path_402" data-name="Path 402" d="M37.973-507.7c-1.434.134-2.249.551-2.656,1.385a21.482,21.482,0,0,0-.75,3.438c-.244,1.586-.489,2.9-.538,2.954a16.409,16.409,0,0,1-1.662.5,36.123,36.123,0,0,0-9.061,3.956l-.9.567-2.494-1.836c-2.282-1.669-2.591-1.836-3.357-1.9a1.949,1.949,0,0,0-1.646.5,37.824,37.824,0,0,0-5.443,5.575,2.667,2.667,0,0,0-.505,1.569c0,.885.212,1.285,2.3,4.189l1.336,1.886-.375.684A40.859,40.859,0,0,0,8.181-474.6l-.44,1.719-2.982.517c-3.1.534-3.488.684-4.156,1.6-.815,1.118-.8,8.846.016,9.965.652.9,1.076,1.068,4.14,1.586l2.982.517.44,1.719a41.176,41.176,0,0,0,3.993,9.547l.424.751-1.516,2.153c-2.037,2.921-2.119,3.071-2.119,3.956a2.627,2.627,0,0,0,.489,1.536,38.888,38.888,0,0,0,5.46,5.591,1.949,1.949,0,0,0,1.646.5c.766-.067,1.076-.234,3.357-1.9l2.494-1.836.9.568a36.125,36.125,0,0,0,9.061,3.956,16.4,16.4,0,0,1,1.662.5c.049.05.293,1.369.538,2.954a21.484,21.484,0,0,0,.75,3.438c.44.868,1.141,1.2,2.917,1.385,1.825.167,2.363,0,2.656-.868a115.487,115.487,0,0,0,.016-12.568c-.244-.668-.782-.9-2.51-1.1a26.386,26.386,0,0,1-9.534-2.854,27.569,27.569,0,0,1-14.228-19.178,21.992,21.992,0,0,1-.359-5.341,21.992,21.992,0,0,1,.359-5.341,30.814,30.814,0,0,1,4.482-10.632,34.255,34.255,0,0,1,2.966-3.472,26.237,26.237,0,0,1,16.835-8.028,2.624,2.624,0,0,0,1.63-.484l.44-.384.049-5.992a51.9,51.9,0,0,0-.13-6.593,1.486,1.486,0,0,0-1.418-1.1C39.326-507.817,38.641-507.75,37.973-507.7Z" transform="translate(0 0)" fill="url(#linear-gradient)"/>
    <path id="Path_403" data-name="Path 403" d="M277.018-489.678a4.155,4.155,0,0,0-1.923,5.525,4.8,4.8,0,0,0,1.988,2.07l.391.179v4.547a30.914,30.914,0,0,1-.179,4.889c-.359.668-1.059.782-4.791.782H269v2.8l4.123-.065c4.661-.049,4.84-.1,6.046-1.434,1.059-1.173,1.076-1.255,1.076-6.633l.016-4.857.847-.489a4.122,4.122,0,0,0,1.825-4.726A4.212,4.212,0,0,0,277.018-489.678Z" transform="translate(-224.756 -14.815)" fill="url(#linear-gradient)"/>
    <path id="Path_404" data-name="Path 404" d="M291.246-411.578a3.834,3.834,0,0,0-2.021,2.053,4.9,4.9,0,0,0-.033,3.5,5.5,5.5,0,0,0,2.119,2.119c.342.1.342.163.342,4.009v3.928l-.473.473-.473.473H269v2.787l11.294-.049c12.647-.049,11.7.033,12.989-1.288,1.043-1.076,1.141-1.6,1.141-6.193v-4.025l.489-.2a4.656,4.656,0,0,0,2-2.1,4.416,4.416,0,0,0-.978-4.775A4.37,4.37,0,0,0,291.246-411.578Z" transform="translate(-224.522 -79.738)" fill="url(#linear-gradient)"/>
    <path id="Path_405" data-name="Path 405" d="M140.326-385.746a21.549,21.549,0,0,0-17.5,14.6,23.347,23.347,0,0,0,0,14.91,21.43,21.43,0,0,0,17.927,14.638c.994.1,1.108.085,1.548-.307l.473-.427v-42.718l-.456-.409C141.858-385.866,141.532-385.917,140.326-385.746Z" transform="translate(-101.579 -102.103)" fill="url(#linear-gradient)"/>
    <path id="Path_406" data-name="Path 406" d="M269-341.533v1.483l7.318-.049,7.318-.049.424-.391a1.634,1.634,0,0,0,.326-1.728c-.277-.7-.652-.733-8.214-.733H269Z" transform="translate(-224.748 -137.286)" fill="url(#linear-gradient)"/>
    <path id="Path_407" data-name="Path 407" d="M303.225-281.622a4.723,4.723,0,0,0-2.689,2.282l-.1.342H269v2.934h31.438l.1.342a5.217,5.217,0,0,0,1.939,1.988,3.512,3.512,0,0,0,1.891.359,3.588,3.588,0,0,0,3.031-1.255,3.5,3.5,0,0,0,1.125-2.9,3.753,3.753,0,0,0-.31-1.793,5.032,5.032,0,0,0-1.972-1.988A5.383,5.383,0,0,0,303.225-281.622Z" transform="translate(-224.522 -188.259)" fill="url(#linear-gradient)"/>
    <path id="Path_408" data-name="Path 408" d="M269-219.7v1.385h21.708l.473.473.473.473v3.928c0,3.846,0,3.911-.342,4.009a5.5,5.5,0,0,0-2.119,2.119,4.283,4.283,0,0,0-.31,1.711,4.045,4.045,0,0,0,4.156,4.237,4.123,4.123,0,0,0,4.2-4.156,4.264,4.264,0,0,0-2.331-3.83l-.489-.2v-4.025c0-4.6-.1-5.117-1.141-6.193-1.287-1.32-.342-1.239-12.989-1.288L269-221.1Z" transform="translate(-224.522 -238.507)" fill="url(#linear-gradient)"/>
    <path id="Path_409" data-name="Path 409" d="M269-185.617v1.467h7.171c7.562,0,7.937-.033,8.214-.733a1.634,1.634,0,0,0-.326-1.728l-.424-.391-7.318-.049L269-187.1Z" transform="translate(-224.748 -267.142)" fill="url(#linear-gradient)"/>
    <path id="Path_410" data-name="Path 410" d="M269-150.717v1.483h7.676l.391.407.407.391v9.257l-.391.179a4.8,4.8,0,0,0-1.988,2.07,4.155,4.155,0,0,0,3.83,5.949,3.794,3.794,0,0,0,3.1-1.385,4.147,4.147,0,0,0-.913-6.356l-.847-.489-.016-4.857c0-5.378-.016-5.46-1.076-6.633-1.206-1.336-1.385-1.385-6.046-1.434L269-152.2Z" transform="translate(-224.756 -295.683)" fill="url(#linear-gradient)"/>
  </g>
</svg>
