<svg xmlns="http://www.w3.org/2000/svg" xmlns:xlink="http://www.w3.org/1999/xlink" width="84" height="84" viewBox="0 0 84 84">
  <defs>
    <linearGradient id="linear-gradient" x1="0.5" x2="0.557" y2="1" gradientUnits="objectBoundingBox">
      <stop offset="0" stop-color="#8731e8"/>
      <stop offset="0.481" stop-color="#5219cb"/>
      <stop offset="1" stop-color="#4528dc"/>
    </linearGradient>
  </defs>
  <g id="world" transform="translate(0)">
    <path id="Path_382" data-name="Path 382" d="M39.319-511.719a43.99,43.99,0,0,0-13.563,3.366,33.552,33.552,0,0,0-5.1,2.692,9.186,9.186,0,0,0,.575.87,9.833,9.833,0,0,1,1.562,8.127,9.187,9.187,0,0,1-2.647,4.58,9.434,9.434,0,0,1-6.938,2.906,9.787,9.787,0,0,1-5.8-1.9,4.7,4.7,0,0,0-.806-.558,35.521,35.521,0,0,0-2.68,5.089A45.488,45.488,0,0,0,.735-474.977a63.9,63.9,0,0,0,0,10.343A45.488,45.488,0,0,0,3.924-453.06,35.52,35.52,0,0,0,6.6-447.97a4.7,4.7,0,0,0,.806-.558,9.788,9.788,0,0,1,5.8-1.9,9.036,9.036,0,0,1,4.307,1,7.7,7.7,0,0,1,2.63,1.9,9.187,9.187,0,0,1,2.647,4.58,9.832,9.832,0,0,1-1.562,8.127,9.179,9.179,0,0,0-.575.87,33.353,33.353,0,0,0,5.129,2.709,42.532,42.532,0,0,0,32.107.575,51.614,51.614,0,0,0,6.165-3.021l.395-.3-.493-.722a9.713,9.713,0,0,1-1.923-5.959,8.868,8.868,0,0,1,1.167-4.6,11.289,11.289,0,0,1,3.9-3.973,9.991,9.991,0,0,1,10.374.542l1.036.706.921-1.625a43.332,43.332,0,0,0,4.883-15.022,63.9,63.9,0,0,0,0-10.343A43.333,43.333,0,0,0,79.433-490l-.921-1.625-1.036.706a9.918,9.918,0,0,1-15.158-5.565,11.456,11.456,0,0,1-.016-4.958,10.846,10.846,0,0,1,1.66-3.464c.608-.854.707-.739-1.792-2.085a43.477,43.477,0,0,0-15.947-4.679A57.2,57.2,0,0,0,39.319-511.719Zm7.3,15.908a26.464,26.464,0,0,1,17.837,11.426,25.284,25.284,0,0,1,4.389,14.579,25.326,25.326,0,0,1-7.727,18.568,25.485,25.485,0,0,1-18.511,7.716,23.231,23.231,0,0,1-6.576-.772,25.327,25.327,0,0,1-12.1-6.961A25.237,25.237,0,0,1,16.2-469.805a25.509,25.509,0,0,1,8.2-19.061A26.169,26.169,0,0,1,46.619-495.811Z" transform="translate(-0.525 511.801)" fill="url(#linear-gradient)"/>
    <path id="Path_383" data-name="Path 383" d="M225.317-385.213c-2.218,2.481-4.059,9.12-4.5,16.251L220.7-367.1h11.551v-.707a56.648,56.648,0,0,0-.674-6.523c-.854-5.192-2.35-9.284-4.059-11.059C226.681-386.248,226.221-386.215,225.317-385.213Z" transform="translate(-184.5 406.649)" fill="url(#linear-gradient)"/>
    <path id="Path_384" data-name="Path 384" d="M138.854-378.023a21.886,21.886,0,0,0-12.406,16.136l-.148.953h10.582l.115-1.923a49.993,49.993,0,0,1,2.876-14.493,9.523,9.523,0,0,0,.46-1.265A8.34,8.34,0,0,0,138.854-378.023Z" transform="translate(-105.62 400.477)" fill="url(#linear-gradient)"/>
    <path id="Path_385" data-name="Path 385" d="M300.254-378.383a48.375,48.375,0,0,1,3.3,15.528l.115,1.939h10.582l-.148-.953a21.927,21.927,0,0,0-13.573-16.645C300.188-378.646,300.155-378.63,300.254-378.383Z" transform="translate(-250.933 400.46)" fill="url(#linear-gradient)"/>
    <path id="Path_386" data-name="Path 386" d="M126.448-240.063a21.905,21.905,0,0,0,.559,2.432,21.56,21.56,0,0,0,9.925,12.735,20.345,20.345,0,0,0,3.4,1.577,9.522,9.522,0,0,0-.46-1.265A50.11,50.11,0,0,1,137-239.078L136.882-241H126.3Z" transform="translate(-105.62 285.448)" fill="url(#linear-gradient)"/>
    <path id="Path_387" data-name="Path 387" d="M220.815-239.16c.444,7.148,2.284,13.786,4.5,16.267.969,1.068,1.4,1.068,2.366,0,2.2-2.481,4.059-9.169,4.5-16.267L232.3-241H220.7Z" transform="translate(-184.5 285.447)" fill="url(#linear-gradient)"/>
    <path id="Path_388" data-name="Path 388" d="M303.631-239.078a50.341,50.341,0,0,1-2.876,14.493,9.527,9.527,0,0,0-.46,1.265,8.342,8.342,0,0,0,1.479-.592,21.883,21.883,0,0,0,12.406-16.152l.148-.937H303.746Z" transform="translate(-251.007 285.448)" fill="url(#linear-gradient)"/>
    <path id="Path_389" data-name="Path 389" d="M51.615-463.764A5.078,5.078,0,0,0,48-459.048a4.452,4.452,0,0,0,1.462,3.533,4.328,4.328,0,0,0,3.779,1.43,4.721,4.721,0,0,0,4.535-4.9,3.962,3.962,0,0,0-.46-2.169,4.841,4.841,0,0,0-2.695-2.432A5.588,5.588,0,0,0,51.615-463.764Z" transform="translate(-40.199 471.767)" fill="url(#linear-gradient)"/>
    <path id="Path_390" data-name="Path 390" d="M407.985-463.681a4.989,4.989,0,0,0-3.385,4.7,4.038,4.038,0,0,0,.526,2.169,4.882,4.882,0,0,0,8.857-.181A4.935,4.935,0,0,0,407.985-463.681Z" transform="translate(-338.161 471.782)" fill="url(#linear-gradient)"/>
    <path id="Path_391" data-name="Path 391" d="M51.08-107.55a5.964,5.964,0,0,0-2.843,2.908A5.035,5.035,0,0,0,50.8-98.431a5.336,5.336,0,0,0,4.256-.082,4.587,4.587,0,0,0,2.678-4.387,4.669,4.669,0,0,0-2.613-4.387A5.817,5.817,0,0,0,51.08-107.55Z" transform="translate(-40.157 174.108)" fill="url(#linear-gradient)"/>
    <path id="Path_392" data-name="Path 392" d="M407.637-107.76a4.661,4.661,0,0,0-2.629,2.432,4.678,4.678,0,0,0,1.134,5.8,4.673,4.673,0,0,0,6.507,0,4.533,4.533,0,0,0,1.643-3.631A4.932,4.932,0,0,0,407.637-107.76Z" transform="translate(-338.043 174.35)" fill="url(#linear-gradient)"/>
  </g>
</svg>
